<?xml version="1.0" encoding="UTF-8"?>
<svg viewBox="0 0 375 1052.3622" xmlns="http://www.w3.org/2000/svg" xmlns:xlink="http://www.w3.org/1999/xlink">
 <defs>
  <linearGradient id="a">
   <stop offset="0"/>
   <stop stop-color="#fff" offset="1"/>
  </linearGradient>
  <linearGradient id="i" x1="335.69" x2="287.33" y1="450.19" y2="541.86" gradientTransform="matrix(2.6072 .10535 -.16328 4.0406 -360.57 -1256.3)" gradientUnits="userSpaceOnUse">
   <stop offset="0"/>
   <stop stop-color="#5a5a5a" offset=".65"/>
   <stop stop-color="#5a5a5a" offset=".825"/>
   <stop stop-color="#1c1a1a" offset="1"/>
  </linearGradient>
  <linearGradient id="h" x1="243.39" x2="252.49" y1="721.35" y2="728.67" gradientTransform="matrix(3.5621 .14394 -.11951 2.9574 -360.57 -1256.3)" gradientUnits="userSpaceOnUse">
   <stop stop-opacity=".66327" offset="0"/>
   <stop stop-color="#fff" stop-opacity="0" offset="1"/>
  </linearGradient>
  <linearGradient id="g" x1="342.26" x2="355.07" y1="391.91" y2="396.07" gradientUnits="userSpaceOnUse" xlink:href="#a"/>
  <linearGradient id="f" x1="344.57" x2="357.38" y1="385.37" y2="389.53" gradientUnits="userSpaceOnUse" xlink:href="#a"/>
  <linearGradient id="e" x1="340.34" x2="353.15" y1="399.21" y2="403.37" gradientUnits="userSpaceOnUse" xlink:href="#a"/>
  <linearGradient id="d" x1="338.42" x2="351.23" y1="406.52" y2="410.68" gradientUnits="userSpaceOnUse" xlink:href="#a"/>
  <linearGradient id="c" x1="336.5" x2="349.31" y1="413.44" y2="417.6" gradientUnits="userSpaceOnUse" xlink:href="#a"/>
  <linearGradient id="b" x1="334.57" x2="347.38" y1="420.74" y2="424.91" gradientUnits="userSpaceOnUse" xlink:href="#a"/>
 </defs>
 <g transform="matrix(1.0578 0 0 1.0578 -199.96 -18.451)">
  <path d="m360.85 995.18-44.516-4.4279s-33.804-9.2533-54.167-25.851-40.312-46.582-41.546-77.923c1.0606-26.248 19.037-80.733 19.037-80.733s19.859-36.005 26.487-69.916-15.298-76.862-19.275-108.57 8.3255-75.908 13.787-80.945 29.191-6.7078 29.191-6.7078 7.8745 0.3182 10.075 10.924-1.2728 31.498 6.1774 42.315 6.8138 26.566 17.419 24.366 18.798-9.7568 18.798-9.7568l26.672-9.4386 33.911 6.6285 0.60956 49.978s-3.049 10.393 7.4502 10.817 15.431 8.5108 26.46-4.189 14.185-25.718 17.234-36.111 11.136-15.325 11.136-15.325l23.517 3.5794s12.382 18.904 11.533 39.903-7.0527 44.41-15.458 57.216-14.397 30.968-12.408 46.822c1.9884 15.855 28.528 74.768 32.717 101.23s8.2719 55.546 2.2798 73.707-17.128 33.486-28.051 43.561c-10.924 10.075-37.596 19.514-50.826 21.608s-68.245-2.7577-68.245-2.7577z" fill="url(#i)" fill-rule="evenodd" stroke="#000" stroke-width="3.2484"/>
  <path d="m319.33 851.53s-21.211 4.4012-27.812-27.415 7.2649-49.659 7.2649-49.659 19.753-33.38 20.283-46.504c1.2728-31.498-7.2113-81.794-7.2113-81.794s-2.2006-10.605 8.2987-10.181 22.775 21.953 22.775 21.953l44.092 14.927s15.325 11.136 28.449 11.666 26.46-4.189 34.971-19.62 12.09-38.948 12.09-38.948 12.912 5.78 9.6508 21.423-12.621 52.072-21.556 78.002 7.2113 81.794 7.2113 81.794 21.502 53.451 20.76 71.825 7.0259 21.317-6.2042 23.411-17.949-11.242-38.312-27.839-51.86-17.87-51.86-17.87l-62.89-5.1704z" fill="#fff" fill-rule="evenodd" stroke="#000" stroke-width="3.2484"/>
  <path d="m334.52 670.74 24.023-464.38 0.31819-7.8745s-13.124-0.53032-10.075-10.924 48.043-147.92 48.043-147.92 24.26-14.794 28.979-1.4581 12.382 18.904 3.9768 31.71-13.973 20.468-13.973 20.468l12.673 76.756s-15.855 1.9884-21.847 20.15-11.454 23.199-11.454 23.199l-8.7509 346.69s-0.53032 13.124 4.0829 29.085 7.132 18.692 7.132 18.692l-10.393-3.0491-0.345 73.601s-16.173 9.8629-31.816 6.6017-20.574-11.348-20.574-11.348z" fill="#ffc380" fill-rule="evenodd" stroke="#000" stroke-width="3.2484"/>
  <path d="m372.42 124.44 1.8654 77.578" fill="none" stroke="#000" stroke-opacity=".39459" stroke-width="1.2181"/>
  <path d="m395.01 60.348-3.5052 148.61" fill="none" stroke="#000" stroke-opacity=".39459" stroke-width=".94202"/>
  <path d="m279.14 544.93s5.1339 7.2512 9.9593 17.963 0.42759 28.213 8.5998 43.257c15.325 11.136 25.824 11.56 25.824 11.56s-28.05 13.074-34.969-10.868-9.4136-61.911-9.4136-61.911z" fill="#fff" fill-opacity=".36216" fill-rule="evenodd" stroke="#000" stroke-width="3.2484"/>
  <path d="m468.97 613.46 9.3249 11.568s9.3814 10.171 7.3075 26.875-7.1667 38.88-11.695 47.09-7.7732 19.271-8.394 34.634-7.9425 23.461 3.442 53.298 26.677 66.827 28.511 90.682 9.4235 43.747 0.31011 61.565-8.0554 26.254-22.473 36.862-30.063 16.971-30.063 16.971 41.631-26.296 48.515-58.193 1.3123-67.095-4.9372-85.533-29.188-73.923-30.189-83.756 9.8613-70.946 14.503-81.95 12.189-24.688 6.0523-45.919-10.214-24.194-10.214-24.194z" fill="#fff" fill-opacity=".36216" fill-rule="evenodd"/>
  <path transform="rotate(2.9656)" d="m365.84 821.24h61.444a5.5687 10.632 0 0 1 5.5687 10.632v24.863a5.5687 10.632 0 0 1 -5.5687 10.632h-61.444a5.5687 10.632 0 0 1 -5.5687 -10.632v-24.863a5.5687 10.632 0 0 1 5.5687 -10.632" fill="#d6e0ec" stroke="#000" stroke-linecap="round" stroke-linejoin="round" stroke-width="3.128"/>
  <path d="m329.56 794.18 48.133 16.49s8.2307 3.2257 5.0774 10.061-6.0898 9.482-11.601 7.7968-46.81-15.022-46.81-15.022-2.6472-2.9364-3.7538-8.5923 6.1621-10.878 8.9539-10.733z" fill="none" stroke="#000" stroke-width="3.2484"/>
  <path d="m333.42 746.8 47.388 3.8547s7.1241-2.4302 6.8349 3.1534 3.6092 11.384-3.5149 13.814-53.116-1.3521-53.116-1.3521-6.9795-0.36158-5.222-7.2687 0.79549-15.355 7.6303-12.202z" fill="none" stroke="#000" stroke-width="3.2484"/>
  <path d="m337.2 700.8 47.388 3.8547s7.1241-2.4302 6.8348 3.1534 3.6091 11.384-3.515 13.814-53.116-1.3521-53.116-1.3521-6.9795-0.36159-5.222-7.2687 0.79548-15.355 7.6303-12.202z" fill="none" stroke="#000" stroke-width="3.2484"/>
  <path transform="matrix(3.2457 .13115 -.13115 3.2457 -360.57 -1256.3)" d="m280.99 645.51a3.0121 3.2273 0 1 1 -6.0242 0 3.0121 3.2273 0 1 1 6.0242 0z" fill="#fff" stroke="#000" stroke-linecap="round" stroke-linejoin="round"/>
  <path transform="matrix(3.2457 .13115 -.13115 3.2457 -383.35 -1281)" d="m280.99 645.51a3.0121 3.2273 0 1 1 -6.0242 0 3.0121 3.2273 0 1 1 6.0242 0z" fill="#fff" stroke="#000" stroke-linecap="round" stroke-linejoin="round"/>
  <path transform="matrix(3.2457 .13115 -.13115 3.2457 -407.81 -1298.8)" d="m280.99 645.51a3.0121 3.2273 0 1 1 -6.0242 0 3.0121 3.2273 0 1 1 6.0242 0z" fill="#fff" stroke="#000" stroke-linecap="round" stroke-linejoin="round"/>
  <path d="m386.85 603.14 2.5126 54.659s1.289 7.0466 9.0887 8.7607l23.399 5.1422s-21.997-0.88886-26.315-10.856-8.6846-57.706-8.6846-57.706z" fill="#fff" fill-opacity=".54054" fill-rule="evenodd"/>
  <path transform="rotate(2.314)" d="m363.39 843.03h48.061a5.5687 8.0726 0 0 1 5.5687 8.0726 5.5687 8.0726 0 0 1 -5.5687 8.0726h-48.061a5.5687 8.0726 0 0 1 -5.5687 -8.0726 5.5687 8.0726 0 0 1 5.5687 -8.0726" fill="#fff" fill-opacity=".54054"/>
  <path d="m364.04 203.25-37.222 663.13" fill="none" stroke="#000" stroke-width="1.7866"/>
  <path d="m358.02 171.36 5.0802 28.956" fill="none" stroke="#000" stroke-opacity=".39459" stroke-width="1.2181"/>
  <path d="m369.1 203.64-33.095 663.04" fill="none" stroke="#000" stroke-width="1.7866"/>
  <path d="m365.07 151.64 4.2733 48.925" fill="none" stroke="#000" stroke-opacity=".39459" stroke-width="1.2181"/>
  <path d="m374.06 204.43-28.015 662.53" fill="none" stroke="#000" stroke-width="1.7866"/>
  <path d="m379.23 206.13-23.1 661.44" fill="none" stroke="#000" stroke-width="1.7866"/>
  <path d="m384.52 208.5-18.018 659.44" fill="none" stroke="#000" stroke-width="1.7866"/>
  <path d="m389.98 209.94-12.342 658.37" fill="none" stroke="#000" stroke-width="2.1532"/>
  <path transform="matrix(2.2304 1.9731 -2.0381 2.1468 1173.1 -1042.9)" d="m282.46 663.03a9.8863 5.1785 0 1 1 -19.773 0 9.8863 5.1785 0 1 1 19.773 0z" fill="#fff" fill-opacity=".95135"/>
  <path d="m418.46 921.28 13.683-13.222s7.8535 2.8548 10.875 6.9643 9.6992 16.341 6.7976 19.124-17.149 0.3945-22.601-2.7258-8.7545-10.141-8.7545-10.141z" fill="url(#h)" fill-rule="evenodd" stroke="#000" stroke-opacity=".24324" stroke-width="1.7458"/>
  <path transform="matrix(3.2457 .13115 -.13115 3.2457 -701.58 -1262.6)" d="m346.45 420.03a2.4993 2.4993 0 1 1 -4.9986 0 2.4993 2.4993 0 1 1 4.9986 0z" fill="url(#g)" stroke="#000" stroke-linecap="round" stroke-linejoin="round" stroke-width=".625"/>
  <path transform="matrix(3.2457 .13115 -.13115 3.2457 -709.92 -1241.7)" d="m346.45 420.03a2.4993 2.4993 0 1 1 -4.9986 0 2.4993 2.4993 0 1 1 4.9986 0z" fill="url(#f)" stroke="#000" stroke-linecap="round" stroke-linejoin="round" stroke-width=".625"/>
  <path transform="matrix(3.2457 .13115 -.13115 3.2457 -694.38 -1286.1)" d="m346.45 420.03a2.4993 2.4993 0 1 1 -4.9986 0 2.4993 2.4993 0 1 1 4.9986 0z" fill="url(#e)" stroke="#000" stroke-linecap="round" stroke-linejoin="round" stroke-width=".625"/>
  <path transform="matrix(3.2457 .13115 -.13115 3.2457 -687.18 -1309.5)" d="m346.45 420.03a2.4993 2.4993 0 1 1 -4.9986 0 2.4993 2.4993 0 1 1 4.9986 0z" fill="url(#d)" stroke="#000" stroke-linecap="round" stroke-linejoin="round" stroke-width=".625"/>
  <path transform="matrix(3.2457 .13115 -.13115 3.2457 -680.03 -1331.7)" d="m346.45 420.03a2.4993 2.4993 0 1 1 -4.9986 0 2.4993 2.4993 0 1 1 4.9986 0z" fill="url(#c)" stroke="#000" stroke-linecap="round" stroke-linejoin="round" stroke-width=".625"/>
  <path transform="matrix(3.2457 .13115 -.13115 3.2457 -672.83 -1355.2)" d="m346.45 420.03a2.4993 2.4993 0 1 1 -4.9986 0 2.4993 2.4993 0 1 1 4.9986 0z" fill="url(#b)" stroke="#000" stroke-linecap="round" stroke-linejoin="round" stroke-width=".625"/>
  <path d="m380.82 102.28-1.5384 99.942" fill="none" stroke="#000" stroke-opacity=".39459" stroke-width=".94202"/>
  <path d="m387.91 81.312-2.4966 123.65" fill="none" stroke="#000" stroke-opacity=".39459" stroke-width=".94202"/>
  <path d="m361.91 199.02 30.847 9.9968" fill="none" stroke="#000" stroke-width="5.0349"/>
  <path d="m412.79 35.143s3.4901-1.0088 6.7483 3.722 8.7889 10.128 7.9367 16.992-10.499 17.972-11.833 22.517-6.7309 10.076-5.241 15.885 13.908 68.399 13.908 68.399-18.042-65.691-18.888-73.199 18.859-25.683 19.138-32.57-2.3596-12.743-11.769-21.746z" fill="#fff" fill-opacity=".9027" fill-rule="evenodd"/>
  <path d="m402.66 164.36 10.201-5.1728-11.401-63.798s-2.4002 43.107 1.8001 51.728-0.60004 17.243-0.60004 17.243z" fill="#585959" fill-opacity=".78378" fill-rule="evenodd"/>
 </g>
</svg>
